<svg width="99" height="21" viewBox="0 0 99 21" fill="none" xmlns="http://www.w3.org/2000/svg">
<path d="M17.6699 0H2.75191C1.2321 0 0 1.23173 0 2.75119V17.6654C0 19.1848 1.23205 20.4166 2.75191 20.4166H10.1094L10.1219 13.1208H8.226C7.97961 13.1208 7.77963 12.9216 7.77868 12.6753L7.76959 10.3236C7.76864 10.0759 7.96922 9.87461 8.21696 9.87461H10.1094V7.60223C10.1094 4.96517 11.7204 3.52927 14.0735 3.52927H16.0043C16.2514 3.52927 16.4517 3.7295 16.4517 3.97652V5.95951C16.4517 6.20644 16.2515 6.40662 16.0046 6.40677L14.8196 6.40732C13.54 6.40732 13.2922 7.01524 13.2922 7.9074V9.87465H16.104C16.372 9.87465 16.5798 10.1085 16.5483 10.3745L16.2695 12.7263C16.2428 12.9513 16.0519 13.1209 15.8252 13.1209H13.3047L13.2922 20.4167H17.67C19.1898 20.4167 20.4219 19.1849 20.4219 17.6655V2.75119C20.4218 1.23173 19.1898 0 17.6699 0Z" fill="white"/>
<path d="M91.9412 0H83.6869C80.3323 0 77.6031 2.72848 77.6031 6.08224V14.3344C77.6031 17.6882 80.3323 20.4167 83.6869 20.4167H91.9412C95.2959 20.4167 98.025 17.6882 98.025 14.3344V6.08224C98.025 2.72848 95.2958 0 91.9412 0ZM95.9706 14.3344C95.9706 16.5592 94.1666 18.3628 91.9412 18.3628H83.6869C81.4616 18.3628 79.6576 16.5592 79.6576 14.3344V6.08224C79.6576 3.85744 81.4616 2.05392 83.6869 2.05392H91.9412C94.1666 2.05392 95.9706 3.85744 95.9706 6.08224V14.3344Z" fill="white"/>
<path d="M87.8142 4.92786C84.9018 4.92786 82.5323 7.29667 82.5323 10.2083C82.5323 13.1199 84.9018 15.4888 87.8142 15.4888C90.7266 15.4888 93.096 13.12 93.096 10.2083C93.096 7.29664 90.7266 4.92786 87.8142 4.92786ZM87.8142 13.4349C86.0317 13.4349 84.5868 11.9903 84.5868 10.2083C84.5868 8.42634 86.0318 6.98177 87.8142 6.98177C89.5966 6.98177 91.0416 8.42634 91.0416 10.2083C91.0416 11.9903 89.5966 13.4349 87.8142 13.4349Z" fill="white"/>
<path d="M93.1061 6.23288C93.805 6.23288 94.3716 5.6664 94.3716 4.96761C94.3716 4.26881 93.805 3.70233 93.1061 3.70233C92.4071 3.70233 91.8405 4.26881 91.8405 4.96761C91.8405 5.6664 92.4071 6.23288 93.1061 6.23288Z" fill="white"/>
<path d="M60.8759 2.37509C60.3314 2.61692 59.7662 2.80769 59.1862 2.94581C59.8253 2.33757 60.3058 1.57679 60.5769 0.727626C60.6542 0.485204 60.3913 0.275575 60.1728 0.405373C59.3659 0.884712 58.4968 1.24431 57.5895 1.47428C57.5369 1.48763 57.4826 1.49439 57.4281 1.49439C57.2628 1.49439 57.1022 1.43293 56.9758 1.32138C56.0105 0.469285 54.769 6.75712e-08 53.48 6.75712e-08C52.9223 6.75712e-08 52.3591 0.087071 51.8062 0.258819C50.0931 0.790999 48.7713 2.20634 48.3566 3.95254C48.201 4.60752 48.1588 5.26309 48.2313 5.90102C48.2396 5.97432 48.205 6.02549 48.1836 6.04948C48.1462 6.09155 48.0931 6.11567 48.0379 6.11567C48.0318 6.11567 48.0254 6.11537 48.0192 6.11477C44.2692 5.76583 40.8877 3.95637 38.4974 1.01978C38.3755 0.869991 38.1418 0.888363 38.0446 1.05526C37.5766 1.85955 37.3292 2.77945 37.3292 3.7155C37.3292 5.15005 37.9046 6.50195 38.9042 7.4875C38.4838 7.38768 38.077 7.23048 37.6991 7.02025C37.5163 6.91852 37.2913 7.04927 37.2888 7.25872C37.2626 9.38984 38.5083 11.2861 40.3745 12.14C40.337 12.1409 40.2994 12.1413 40.2617 12.1413C39.9659 12.1413 39.6664 12.1127 39.3716 12.0563C39.1657 12.0169 38.9927 12.2126 39.0567 12.4125C39.6624 14.3066 41.2907 15.7027 43.2392 16.0197C41.622 17.107 39.7388 17.6805 37.7788 17.6805L37.1677 17.6801C36.9794 17.6801 36.8202 17.803 36.7722 17.9857C36.725 18.1656 36.812 18.3553 36.9726 18.4489C39.1812 19.7363 41.7005 20.4167 44.2592 20.4167C46.4989 20.4167 48.5939 19.9715 50.4862 19.0936C52.2209 18.2888 53.7538 17.1383 55.0423 15.6741C56.2427 14.3102 57.1813 12.7357 57.8321 10.9944C58.4525 9.33454 58.7804 7.56344 58.7804 5.87253V5.79198C58.7803 5.52048 58.9029 5.26501 59.1168 5.09111C59.9285 4.43104 60.6353 3.65405 61.2176 2.78172C61.3713 2.55139 61.1289 2.26271 60.8759 2.37509Z" fill="white"/>
</svg>
